#!OML:ASF H:\LiuWeirdWalks\Patient Classification 1\Patient 1\Session 1\male.ASF
:FULLY-SPECIFIED
:DEGREES
478
root 0.82771 19.9247 18.3082 -0.104898 6.37746 -11.9746
lowerback 13.4877 -0.977737 1.94474
upperback -2.78091 -0.52409 4.31082
thorax -10.6143 -0.205939 3.70659
lowerneck -17.2315 0.898675 9.55716
upperneck 18.8306 0.341733 -7.60803
head 8.74659 0.0330386 -4.15132
rclavicle 1.14985e-014 -2.5842e-014
rhumerus -62.7972 9.34153 -79.1926
rradius 38.6054
rwrist -9.35304
rhand -13.6307 1.20531
rfingers 7.12502
rthumb 12.4852 -28.4017
lclavicle 1.14985e-014 -2.5842e-014
lhumerus -60.4495 -6.57487 74.8543
lradius 48.1969
lwrist 7.48029
lhand -19.351 -8.44225
lfingers 7.12502
lthumb 6.9663 21.4231
rfemur -18.2498 -13.8399 17.4162
rtibia 90.1804
rfoot 3.97619 -9.69926
rtoes -6.31641
lfemur -10.4049 -1.13715 -14.5355
ltibia 42.4712
lfoot 2.21139 3.6479
ltoes -17.0015
479
root 0.813925 19.9258 18.5529 -0.202918 6.81805 -12.1736
lowerback 13.5624 -1.04584 1.87136
upperback -2.76863 -0.62845 4.27959
thorax -10.6385 -0.252113 3.73962
lowerneck -17.0215 0.891571 9.77976
upperneck 18.7523 0.272407 -7.53029
head 8.67623 0.026981 -4.16518
rclavicle 4.69629e-015 3.57812e-015
rhumerus -62.3801 8.19237 -78.8768
rradius 36.4678
rwrist -8.56087
rhand -13.6995 1.54551
rfingers 7.12502
rthumb 12.4189 -28.0656
lclavicle 4.69629e-015 3.57812e-015
lhumerus -60.3744 -6.18417 74.2142
lradius 47.6002
lwrist 7.40774
lhand -19.5293 -8.4062
lfingers 7.12502
lthumb 6.79423 21.4648
rfemur -16.8358 -13.5514 17.8502
rtibia 88.9999
rfoot 4.05757 -10.3641
rtoes -6.03342
lfemur -11.4476 -1.03504 -14.3056
ltibia 40.1259
lfoot -0.0928894 4.70145
ltoes -17.3752
480
root 0.79593 19.8957 18.7937 -0.25333 7.26638 -12.2838
lowerback 13.5754 -1.14222 1.66875
upperback -2.82189 -0.797488 4.21305
thorax -10.6943 -0.321847 3.82261
lowerneck -16.4866 0.907037 10.1532
upperneck 18.5392 0.241237 -7.52808
head 8.50551 0.044217 -4.2186
rclavicle 1.37348e-014 -7.15625e-015
rhumerus -62.0364 7.08964 -78.5811
rradius 34.2951
rwrist -7.57515
rhand -13.8041 1.86264
rfingers 7.12502
rthumb 12.318 -27.7545
lclavicle 1.37348e-014 -7.15625e-015
lhumerus -60.4868 -5.80002 73.5168
lradius 47.0884
lwrist 7.37737
lhand -19.6851 -8.42366
lfingers 7.12502
lthumb 6.64381 21.4521
rfemur -15.5914 -13.3315 18.1824
rtibia 88.0072
rfoot 4.03602 -11.0544
rtoes -5.61255
lfemur -12.462 -1.03843 -14.1929
ltibia 37.4703
lfoot -2.10822 5.77781
ltoes -17.7455
481
root 0.780426 19.8747 19.042 -0.263886 7.70973 -12.3791
lowerback 13.5126 -1.27173 1.41477
upperback -2.96248 -1.02304 4.11874
thorax -10.7986 -0.415255 3.91802
lowerneck -15.4651 0.91776 10.693
upperneck 18.1643 0.22882 -7.59288
head 8.19579 0.0790923 -4.31123
rclavicle 2.53388e-014 -3.29983e-014
rhumerus -61.8406 6.01739 -78.3015
rradius 32.1328
rwrist -6.37842
rhand -13.9056 2.10862
rfingers 7.12502
rthumb 12.2201 -27.5144
lclavicle 2.53388e-014 -3.29983e-014
lhumerus -60.8373 -5.47894 72.7628
lradius 46.6458
lwrist 7.36784
lhand -19.8506 -8.50998
lfingers 7.12502
lthumb 6.48408 21.3708
rfemur -14.3555 -13.1588 18.5181
rtibia 86.9848
rfoot 3.96573 -11.7719
rtoes -5.14967
lfemur -13.3427 -1.1503 -14.1
ltibia 34.5055
lfoot -3.79736 6.85649
ltoes -18.0049
482
root 0.766291 19.841 19.2922 -0.231776 8.16006 -12.4596
lowerback 13.4202 -1.40889 1.13403
upperback -3.13033 -1.2622 4.04295
thorax -10.9132 -0.511866 4.05201
lowerneck -14.4487 0.918371 11.1894
upperneck 17.8249 0.228284 -7.66496
head 7.90183 0.115508 -4.3992
rclavicle 5.44173e-015 1.74931e-014
rhumerus -61.6557 4.97568 -77.9134
rradius 30.0282
rwrist -5.06802
rhand -13.9885 2.24717
rfingers 7.12502
rthumb 12.1402 -27.3806
lclavicle 5.44173e-015 1.74931e-014
lhumerus -61.2385 -5.15415 72.0472
lradius 46.2527
lwrist 7.32386
lhand -20.024 -8.65712
lfingers 7.12502
lthumb 6.31665 21.2287
rfemur -13.2044 -13.0609 18.8228
rtibia 86.0464
rfoot 3.82285 -12.457
rtoes -4.71165
lfemur -14.1912 -1.40679 -14.0201
ltibia 31.3995
lfoot -5.1415 7.96644
ltoes -18.2337
483
root 0.753525 19.7941 19.544 -0.174212 8.58199 -12.5764
lowerback 13.2353 -1.53154 0.739188
upperback -3.3478 -1.4879 4.11686
thorax -11.0222 -0.587312 4.41071
lowerneck -13.089 0.871262 11.4877
upperneck 17.3828 0.264566 -7.78776
head 7.51732 0.154563 -4.46207
rclavicle 1.71793e-014 1.98785e-014
rhumerus -61.5711 4.11876 -77.271
rradius 28.0402
rwrist -3.74185
rhand -14.0106 2.28504
rfingers 7.12502
rthumb 12.1189 -27.344
lclavicle 1.71793e-014 1.98785e-014
lhumerus -61.8088 -4.72587 71.5366
lradius 45.8961
lwrist 7.21631
lhand -20.1844 -8.85238
lfingers 7.12502
lthumb 6.16184 21.038
rfemur -12.1503 -13.0019 19.1585
rtibia 85.1764
rfoot 3.64792 -13.0998
rtoes -4.40122
lfemur -14.967 -1.79861 -13.8737
ltibia 28.1455
lfoot -6.11012 9.12242
ltoes -18.3512
484
root 0.743836 19.7335 19.7977 -0.0852826 8.97591 -12.7049
lowerback 13.0344 -1.68721 0.23839
upperback -3.50828 -1.76726 4.29939
thorax -11.0442 -0.677782 4.95748
lowerneck -12.0799 0.910211 11.7361
upperneck 17.0908 0.413434 -7.98183
head 7.25817 0.235727 -4.53838
rclavicle 1.34987e-014 0
rhumerus -61.286 3.47366 -76.5051
rradius 26.169
rwrist -2.43256
rhand -13.956 2.20225
rfingers 7.12502
rthumb 12.1715 -27.4237
lclavicle 1.34987e-014 0
lhumerus -62.3091 -4.04194 71.0755
lradius 45.5529
lwrist 7.05799
lhand -20.3329 -9.07804
lfingers 7.12502
lthumb 6.01843 20.8165
rfemur -11.192 -12.9943 19.4745
rtibia 84.4066
rfoot 3.40869 -13.661
rtoes -4.17754
lfemur -15.7372 -2.32622 -13.6755
ltibia 24.9468
lfoot -6.79413 10.3526
ltoes -18.4024
